<svg xmlns="http://www.w3.org/2000/svg" xmlns:xlink="http://www.w3.org/1999/xlink" version="1.1" x="0px" y="0px" viewBox="0 0 100 125" enable-background="new 0 0 100 100" xml:space="preserve"><path d="M92.293,66.96l6.506-48.455H17.113l-6.811-6.274c0.659-1.73,0.246-3.762-1.2-5.094C7.206,5.391,4.253,5.513,2.507,7.409  s-1.625,4.849,0.271,6.596c1.37,1.261,3.291,1.547,4.91,0.895l7.522,6.928L21.27,66.96h6.064l-3.586,9.638  c-0.25-0.021-0.502-0.033-0.758-0.033c-5.094,0-9.223,4.129-9.223,9.222s4.128,9.223,9.223,9.223c4.406,0,8.087-3.091,9.001-7.223  h40.065c0.915,4.132,4.596,7.223,9.002,7.223c5.094,0,9.223-4.13,9.223-9.223s-4.129-9.222-9.223-9.222  c-4.5,0-8.245,3.225-9.057,7.488H32.047c-0.528-2.775-2.299-5.11-4.714-6.402l3.979-10.69H92.293z M36.705,57.903  c-1.771,0-3.205-1.437-3.205-3.206c0-1.771,1.435-3.205,3.205-3.205c1.77,0,3.206,1.435,3.206,3.205  C39.911,56.467,38.475,57.903,36.705,57.903z M46.779,57.903c-1.771,0-3.205-1.437-3.205-3.206c0-1.771,1.435-3.205,3.205-3.205  c1.77,0,3.205,1.435,3.205,3.205C49.984,56.467,48.549,57.903,46.779,57.903z M56.853,57.903c-1.771,0-3.205-1.437-3.205-3.206  c0-1.771,1.435-3.205,3.205-3.205s3.205,1.435,3.205,3.205C60.058,56.467,58.623,57.903,56.853,57.903z M66.926,57.903  c-1.771,0-3.205-1.437-3.205-3.206c0-1.771,1.435-3.205,3.205-3.205c1.77,0,3.205,1.435,3.205,3.205  C70.131,56.467,68.695,57.903,66.926,57.903z M77,57.903c-1.771,0-3.206-1.437-3.206-3.206c0-1.771,1.436-3.205,3.206-3.205  s3.205,1.435,3.205,3.205C80.205,56.467,78.771,57.903,77,57.903z M87.231,24.781c1.77,0,3.206,1.436,3.206,3.206  s-1.437,3.205-3.206,3.205s-3.205-1.435-3.205-3.205S85.462,24.781,87.231,24.781z M85.395,41.342c0,1.77-1.436,3.205-3.206,3.205  c-1.77,0-3.205-1.435-3.205-3.205c0-1.771,1.436-3.206,3.205-3.206C83.959,38.137,85.395,39.572,85.395,41.342z M77.157,24.781  c1.771,0,3.205,1.436,3.205,3.206s-1.435,3.205-3.205,3.205c-1.77,0-3.205-1.435-3.205-3.205S75.388,24.781,77.157,24.781z   M75.32,41.342c0,1.77-1.436,3.205-3.205,3.205c-1.771,0-3.206-1.435-3.206-3.205c0-1.771,1.436-3.206,3.206-3.206  C73.885,38.137,75.32,39.572,75.32,41.342z M67.084,24.781c1.77,0,3.206,1.436,3.206,3.206s-1.437,3.205-3.206,3.205  s-3.205-1.435-3.205-3.205S65.314,24.781,67.084,24.781z M65.247,41.342c0,1.77-1.436,3.205-3.206,3.205  c-1.77,0-3.204-1.435-3.204-3.205c0-1.771,1.435-3.206,3.204-3.206C63.812,38.137,65.247,39.572,65.247,41.342z M57.011,24.781  c1.77,0,3.205,1.436,3.205,3.206s-1.436,3.205-3.205,3.205c-1.771,0-3.206-1.435-3.206-3.205S55.24,24.781,57.011,24.781z   M55.173,41.342c0,1.77-1.435,3.205-3.205,3.205c-1.77,0-3.204-1.435-3.204-3.205c0-1.771,1.434-3.206,3.204-3.206  C53.738,38.137,55.173,39.572,55.173,41.342z M46.937,24.781c1.771,0,3.206,1.436,3.206,3.206s-1.435,3.205-3.206,3.205  c-1.77,0-3.205-1.435-3.205-3.205S45.167,24.781,46.937,24.781z M45.1,41.342c0,1.77-1.435,3.205-3.205,3.205  c-1.771,0-3.206-1.435-3.206-3.205c0-1.771,1.436-3.206,3.206-3.206C43.665,38.137,45.1,39.572,45.1,41.342z M36.863,24.781  c1.771,0,3.205,1.436,3.205,3.206s-1.435,3.205-3.205,3.205c-1.77,0-3.205-1.435-3.205-3.205S35.093,24.781,36.863,24.781z   M26.79,31.192c-1.77,0-3.205-1.435-3.205-3.205s1.436-3.206,3.205-3.206c1.771,0,3.205,1.436,3.205,3.206  S28.561,31.192,26.79,31.192z M28.616,41.342c0-1.771,1.434-3.206,3.205-3.206c1.77,0,3.206,1.435,3.206,3.206  c0,1.77-1.436,3.205-3.206,3.205C30.05,44.547,28.616,43.112,28.616,41.342z"/><text x="0" y="115" fill="#000000" font-size="5px" font-weight="bold" font-family="'Helvetica Neue', Helvetica, Arial-Unicode, Arial, Sans-serif">Created by Rafa</text><text x="0" y="120" fill="#000000" font-size="5px" font-weight="bold" font-family="'Helvetica Neue', Helvetica, Arial-Unicode, Arial, Sans-serif">from the Noun Project</text></svg>